<?xml version="1.0" encoding="UTF-8" standalone="no"?>
<!-- Created with Inkscape (http://www.inkscape.org/) -->

<svg
   width="51.544113mm"
   height="25.019648mm"
   viewBox="0 0 51.544113 25.019648"
   version="1.1"
   id="svg5"
   xmlns="http://www.w3.org/2000/svg"
   xmlnsSvg="http://www.w3.org/2000/svg">
  <defs
     id="defs2">
    <rect
       x="106.02182"
       y="295.11227"
       width="577.10846"
       height="380.36694"
       id="rect115" />
  </defs>
  <g
     id="layer1"
     transform="translate(-84.580606,-111.32565)">
    <g
       aria-label="Tyler
Singleton"
       transform="matrix(0.264583,0,0,0.264583,6.0730274,31.521929)"
       id="text113"
       style="font-size:42.6667px;-inkscape-font-specification:'sans-serif, Normal';white-space:pre;shape-inside:url(#rect115);fill:#ffffff">
      <path
         d="m 369.51365,306.68326 h -11.08334 v 27.35419 h -4.125 v -27.35419 h -11.08334 v -3.66667 h 26.29168 z"
         style="text-align:center;text-anchor:middle"
         id="path1482" />
      <path
         d="m 389.32617,310.7666 -13.58334,31.85419 h -4.18751 l 4.33334,-9.70834 -9.27084,-22.14585 h 4.25 l 7.14584,17.25001 7.20834,-17.25001 z"
         style="text-align:center;text-anchor:middle"
         id="path1484" />
      <path
         d="m 398.40951,334.03745 h -3.91667 v -32.41669 h 3.91667 z"
         style="text-align:center;text-anchor:middle"
         id="path1486" />
      <path
         d="m 425.6387,322.80828 h -17.14585 q 0,2.14583 0.64583,3.75 0.64584,1.58333 1.77084,2.60417 1.08333,1 2.5625,1.5 1.5,0.5 3.29167,0.5 2.375,0 4.77084,-0.9375 2.41666,-0.95834 3.4375,-1.875 h 0.20833 v 4.27083 q -1.97917,0.83334 -4.04167,1.39584 -2.0625,0.5625 -4.33333,0.5625 -5.79168,0 -9.04168,-3.125 -3.25,-3.14584 -3.25,-8.91668 0,-5.70834 3.10417,-9.0625 3.125,-3.35417 8.20834,-3.35417 4.70834,0 7.25,2.75 2.56251,2.75 2.56251,7.8125 z m -3.81251,-3.00001 q -0.0208,-3.08333 -1.5625,-4.77083 -1.52083,-1.6875 -4.64584,-1.6875 -3.14583,0 -5.02083,1.85416 -1.85417,1.85417 -2.10417,4.60417 z"
         style="text-align:center;text-anchor:middle"
         id="path1488" />
      <path
         d="m 446.09704,315.03744 h -0.20833 q -0.875,-0.20834 -1.70834,-0.29167 -0.8125,-0.10417 -1.9375,-0.10417 -1.8125,0 -3.5,0.8125 -1.6875,0.79167 -3.25,2.0625 v 16.52085 H 431.5762 V 310.7666 h 3.91667 v 3.4375 q 2.33333,-1.875 4.10417,-2.64583 1.79166,-0.79167 3.64583,-0.79167 1.02084,0 1.47917,0.0625 0.45833,0.0417 1.375,0.1875 z"
         style="text-align:center;text-anchor:middle"
         id="path1490" />
      <path
         d="m 320.63862,378.51665 q 0,1.8125 -0.85417,3.58334 -0.83333,1.77083 -2.35417,3 -1.66667,1.33333 -3.89584,2.08333 -2.20833,0.75001 -5.33333,0.75001 -3.35417,0 -6.04167,-0.62501 -2.66667,-0.625 -5.43751,-1.85416 v -5.16667 h 0.29167 q 2.35417,1.95833 5.4375,3.02083 3.08334,1.0625 5.79167,1.0625 3.83334,0 5.95834,-1.4375 2.14584,-1.4375 2.14584,-3.83333 0,-2.06251 -1.02084,-3.04167 -1,-0.97917 -3.0625,-1.52084 -1.5625,-0.41667 -3.39584,-0.6875 -1.8125,-0.27083 -3.85416,-0.6875 -4.12501,-0.875 -6.12501,-2.97917 -1.97917,-2.125 -1.97917,-5.52084 0,-3.89583 3.29167,-6.375 3.29167,-2.5 8.35417,-2.5 3.27084,0 6.00001,0.625 2.72917,0.625 4.83334,1.54167 v 4.875 h -0.29167 q -1.77084,-1.5 -4.66667,-2.47917 -2.875,-1 -5.89584,-1 -3.3125,0 -5.33334,1.375 -2,1.375 -2,3.54167 0,1.9375 1,3.04167 1,1.10417 3.52084,1.6875 1.33333,0.29167 3.79167,0.70833 2.45833,0.41667 4.16667,0.85417 3.45833,0.91667 5.20834,2.77084 1.75,1.85417 1.75,5.1875 z"
         style="text-align:center;text-anchor:middle"
         id="path1492" />
      <path
         d="m 331.15946,360.20414 h -4.41667 v -4.06251 h 4.41667 z m -0.25,27.16668 h -3.91667 v -23.27085 h 3.91667 z"
         style="text-align:center;text-anchor:middle"
         id="path1494" />
      <path
         d="m 358.11781,387.37082 h -3.91667 v -13.25001 q 0,-1.60416 -0.1875,-3 -0.1875,-1.41667 -0.6875,-2.20833 -0.52083,-0.875 -1.5,-1.29167 -0.97917,-0.4375 -2.54167,-0.4375 -1.60417,0 -3.35417,0.79167 -1.75,0.79166 -3.35417,2.02083 v 17.37501 h -3.91667 v -23.27085 h 3.91667 v 2.58334 q 1.83334,-1.52084 3.79167,-2.375 1.95834,-0.85417 4.02084,-0.85417 3.77084,0 5.75,2.27084 1.97917,2.27083 1.97917,6.54167 z"
         style="text-align:center;text-anchor:middle"
         id="path1496" />
      <path
         d="m 384.5345,384.72499 q 0,5.91667 -2.6875,8.68751 -2.6875,2.77083 -8.27084,2.77083 -1.85417,0 -3.625,-0.27083 -1.75,-0.25 -3.45834,-0.72917 v -4 h 0.20833 q 0.95834,0.375 3.04167,0.91666 2.08334,0.56251 4.16667,0.56251 2,0 3.31251,-0.47917 1.3125,-0.47917 2.04166,-1.33334 0.72917,-0.8125 1.04167,-1.95833 0.3125,-1.14584 0.3125,-2.5625 v -2.125 q -1.77083,1.41666 -3.39583,2.125 -1.60417,0.6875 -4.10417,0.6875 -4.16667,0 -6.62501,-3 -2.4375,-3.02084 -2.4375,-8.50001 0,-3 0.83333,-5.16667 0.85417,-2.1875 2.3125,-3.77084 1.35417,-1.47917 3.29167,-2.29167 1.9375,-0.83333 3.85417,-0.83333 2.02084,0 3.37501,0.41667 1.375,0.39583 2.89583,1.22916 l 0.25,-1 h 3.66667 z m -3.91667,-3.75 v -12.68751 q -1.5625,-0.70834 -2.91667,-1 -1.33333,-0.3125 -2.66667,-0.3125 -3.22917,0 -5.08333,2.16666 -1.85417,2.16667 -1.85417,6.29168 0,3.91667 1.375,5.9375 1.375,2.02084 4.5625,2.02084 1.70834,0 3.41667,-0.64584 1.72917,-0.66667 3.16667,-1.77083 z"
         style="text-align:center;text-anchor:middle"
         id="path1498" />
      <path
         d="m 396.20117,387.37082 h -3.91667 v -32.41669 h 3.91667 z"
         style="text-align:center;text-anchor:middle"
         id="path1500" />
      <path
         d="m 423.43036,376.14165 h -17.14584 q 0,2.14583 0.64583,3.75 0.64583,1.58334 1.77083,2.60417 1.08334,1 2.56251,1.5 1.5,0.5 3.29167,0.5 2.375,0 4.77083,-0.9375 2.41667,-0.95833 3.43751,-1.875 h 0.20833 v 4.27084 q -1.97917,0.83333 -4.04167,1.39583 -2.0625,0.5625 -4.33334,0.5625 -5.79167,0 -9.04167,-3.125 -3.25,-3.14584 -3.25,-8.91667 0,-5.70834 3.10417,-9.06251 3.125,-3.35417 8.20834,-3.35417 4.70833,0 7.25,2.75 2.5625,2.75 2.5625,7.81251 z m -3.8125,-3 q -0.0208,-3.08334 -1.5625,-4.77084 -1.52084,-1.6875 -4.64584,-1.6875 -3.14583,0 -5.02084,1.85417 -1.85416,1.85417 -2.10416,4.60417 z"
         style="text-align:center;text-anchor:middle"
         id="path1502" />
      <path
         d="m 441.45121,387.16249 q -1.10417,0.29167 -2.41667,0.47917 -1.29167,0.1875 -2.3125,0.1875 -3.5625,0 -5.41667,-1.91667 -1.85417,-1.91667 -1.85417,-6.14584 v -12.37501 h -2.64583 v -3.29167 h 2.64583 v -6.6875 h 3.91667 v 6.6875 h 8.08334 v 3.29167 h -8.08334 v 10.60418 q 0,1.83333 0.0833,2.875 0.0833,1.02083 0.58334,1.91667 0.45833,0.83333 1.25,1.22917 0.8125,0.375 2.45833,0.375 0.95834,0 2.00001,-0.27084 1.04166,-0.29166 1.5,-0.47916 h 0.20833 z"
         style="text-align:center;text-anchor:middle"
         id="path1504" />
      <path
         d="m 466.01373,375.74582 q 0,5.6875 -2.91667,8.97917 -2.91667,3.29167 -7.8125,3.29167 -4.93751,0 -7.85418,-3.29167 -2.89583,-3.29167 -2.89583,-8.97917 0,-5.68751 2.89583,-8.97918 2.91667,-3.3125 7.85418,-3.3125 4.89583,0 7.8125,3.3125 2.91667,3.29167 2.91667,8.97918 z m -4.04167,0 q 0,-4.52084 -1.77083,-6.70834 -1.77084,-2.20834 -4.91667,-2.20834 -3.18751,0 -4.95834,2.20834 -1.75,2.1875 -1.75,6.70834 0,4.375 1.77083,6.64583 1.77084,2.25001 4.93751,2.25001 3.125,0 4.89583,-2.22917 1.79167,-2.25 1.79167,-6.66667 z"
         style="text-align:center;text-anchor:middle"
         id="path1506" />
      <path
         d="m 491.53457,387.37082 h -3.91666 v -13.25001 q 0,-1.60416 -0.1875,-3 -0.18751,-1.41667 -0.68751,-2.20833 -0.52083,-0.875 -1.5,-1.29167 -0.97916,-0.4375 -2.54167,-0.4375 -1.60416,0 -3.35416,0.79167 -1.75001,0.79166 -3.35417,2.02083 v 17.37501 h -3.91667 v -23.27085 h 3.91667 v 2.58334 q 1.83333,-1.52084 3.79167,-2.375 1.95833,-0.85417 4.02083,-0.85417 3.77084,0 5.75001,2.27084 1.97916,2.27083 1.97916,6.54167 z"
         style="text-align:center;text-anchor:middle"
         id="path1508" />
    </g>
  </g>
</svg>
